<svg width="600" height="400" viewBox="0 0 600 400" fill="none" xmlns="http://www.w3.org/2000/svg">
  <defs>
    <linearGradient id="bgGrad" x1="0" y1="0" x2="1" y2="1">
      <stop offset="0%" stop-color="#0f172a"/>
      <stop offset="50%" stop-color="#1e293b"/>
      <stop offset="100%" stop-color="#38bdf8"/>
    </linearGradient>
    <linearGradient id="calcGrad" x1="0" y1="0" x2="1" y2="1">
      <stop offset="0%" stop-color="#020617"/>
      <stop offset="100%" stop-color="#0f172a"/>
    </linearGradient>
    <linearGradient id="btnGrad" x1="0" y1="0" x2="1" y2="1">
      <stop offset="0%" stop-color="#38bdf8"/>
      <stop offset="100%" stop-color="#0ea5e9"/>
    </linearGradient>
  </defs>

  <rect width="600" height="400" rx="32" fill="url(#bgGrad)"/>

  <!-- glow -->
  <ellipse cx="300" cy="320" rx="200" ry="60" fill="#0f172a" opacity="0.6"/>

  <!-- calculator body -->
  <rect x="180" y="60" width="240" height="280" rx="24" fill="url(#calcGrad)" stroke="#38bdf8" stroke-width="2"/>

  <!-- display -->
  <rect x="200" y="80" width="200" height="60" rx="12" fill="#020617" stroke="#38bdf8" stroke-width="1.5"/>

  <!-- buttons row 1 -->
  <rect x="200" y="160" width="44" height="44" rx="10" fill="#1f2937"/>
  <rect x="252" y="160" width="44" height="44" rx="10" fill="#1f2937"/>
  <rect x="304" y="160" width="44" height="44" rx="10" fill="#1f2937"/>
  <rect x="356" y="160" width="44" height="44" rx="10" fill="#0369a1"/>

  <!-- buttons row 2 -->
  <rect x="200" y="212" width="44" height="44" rx="10" fill="#1f2937"/>
  <rect x="252" y="212" width="44" height="44" rx="10" fill="#1f2937"/>
  <rect x="304" y="212" width="44" height="44" rx="10" fill="#1f2937"/>
  <rect x="356" y="212" width="44" height="44" rx="10" fill="#0369a1"/>

  <!-- buttons row 3 -->
  <rect x="200" y="264" width="44" height="44" rx="10" fill="#1f2937"/>
  <rect x="252" y="264" width="44" height="44" rx="10" fill="#1f2937"/>
  <rect x="304" y="264" width="44" height="44" rx="10" fill="#1f2937"/>
  <rect x="356" y="264" width="44" height="44" rx="10" fill="#0369a1"/>

  <!-- equal button -->
  <rect x="200" y="316" width="148" height="24" rx="12" fill="url(#btnGrad)"/>

  <!-- small math icons on keys -->
</svg>